# xmcd
#
# Track frame offsets: 
#        150
#        18500
#        38550
#        56300
#        85175
#        100625
#        120450
#        138950
#        167125
#        184700
#
# Disc length: 2662 seconds
#
# Revision: 4
# Processed by: cddbd v1.5.2PL0 Copyright (c) Steve Scherf et al.
# Submitted via: ExactAudioCopyFreeDBPlugin 1.0
#
DISCID=700a640a
DTITLE=Rory Gallagher - Against The Grain
DYEAR=1975
DGENRE=Blues Rock
TTITLE0=Let Me In
TTITLE1=Cross Me Off Your List
TTITLE2=Ain't Too Good
TTITLE3=Souped-Up Ford
TTITLE4=Bought And Sold
TTITLE5=I Take What I Want
TTITLE6=Lost At Sea
TTITLE7=All Around Man
TTITLE8=Out On The Western Plain
TTITLE9=At The Bottom
EXTD=
EXTT0=
EXTT1=
EXTT2=
EXTT3=
EXTT4=
EXTT5=
EXTT6=
EXTT7=
EXTT8=
EXTT9=
PLAYORDER=
